<?xml version="1.0" encoding="utf-8"?>
<!-- Generator: Adobe Illustrator 16.0.0, SVG Export Plug-In . SVG Version: 6.00 Build 0)  -->
<!DOCTYPE svg PUBLIC "-//W3C//DTD SVG 1.1//EN" "http://www.w3.org/Graphics/SVG/1.1/DTD/svg11.dtd" [
	<!ENTITY ns_flows "http://ns.adobe.com/Flows/1.0/">
	<!ENTITY ns_extend "http://ns.adobe.com/Extensibility/1.0/">
	<!ENTITY ns_ai "http://ns.adobe.com/AdobeIllustrator/10.0/">
	<!ENTITY ns_graphs "http://ns.adobe.com/Graphs/1.0/">
]>
<svg version="1.1" id="Layer_1" xmlns:x="&ns_extend;" xmlns:i="&ns_ai;" xmlns:graph="&ns_graphs;"
	 xmlns="http://www.w3.org/2000/svg" xmlns:xlink="http://www.w3.org/1999/xlink" xmlns:a="http://ns.adobe.com/AdobeSVGViewerExtensions/3.0/"
	 x="0px" y="0px" width="190.414px" height="40px" viewBox="0 0 190.414 40" enable-background="new 0 0 190.414 40"
	 xml:space="preserve">
<path fill-rule="evenodd" clip-rule="evenodd" fill="#A6CE39" d="M133.802,27.61c0.563,0,1.076-0.12,1.943-0.437l-0.365-2.256
	c-0.653,0.084-0.878,0.17-1.198,0.17c-0.571,0-0.89-0.233-0.889-1.062l0.042-15.818l-3.065,1.136l-0.018,14.682
	C130.25,25.796,130.709,27.61,133.802,27.61L133.802,27.61z M126.571,27.61c0.563,0,1.076-0.12,1.944-0.437l-0.365-2.256
	c-0.653,0.084-0.879,0.17-1.198,0.17c-0.572,0-0.89-0.233-0.888-1.062l0.04-15.818l-3.065,1.136l-0.019,14.682
	C123.018,25.796,123.479,27.61,126.571,27.61L126.571,27.61z M110.025,20.55c0,0,1.853-5.378,2.475-7.268h0.088
	c0.921,2.623,2.444,7.243,2.444,7.243L110.025,20.55L110.025,20.55z M121.016,27.427c0,0-6.306-16.717-6.923-18.34h-2.974
	l-6.983,18.34h3.363l1.492-3.963h6.994l1.497,3.963H121.016z"/>
<path fill-rule="evenodd" clip-rule="evenodd" fill="#A6CE39" d="M100.074,16.579l-0.004-2.485h-2.794l-0.016-4.013l-3.064,1.12
	l-0.005,2.893h-2.057l-0.008,2.485h2.057l-0.011,7.461c-0.002,1.826,0.614,3.57,3.756,3.57c0.588,0,1.111-0.133,2.005-0.425
	L99.56,24.93c-0.699,0.108-0.905,0.184-1.197,0.184c-0.878,0-1.128-0.479-1.13-1.174l0.022-7.36H100.074L100.074,16.579z
	 M81.697,18.79c0.592-1.182,1.702-2.069,3.048-2.069c2.198,0,3.028,2.019,3.028,4.051c-0.012,1.84-0.914,4.138-2.87,4.138
	c-1.491,0-2.649-0.938-3.22-2.252L81.697,18.79L81.697,18.79z M81.684,26.004c1.038,1.087,2.335,1.795,3.593,1.795
	c4.033,0,5.653-3.39,5.652-6.94c0.01-3.36-1.377-7.015-5.395-7.015c-1.577,0-3.048,0.986-3.999,2.148l-0.248-1.865h-2.663
	l-0.024,18.798l3.063-1.127L81.684,26.004L81.684,26.004z M71.959,9.998c-0.008,1.166,0.999,2.094,2.085,2.094
	c1.087,0,2.102-0.928,2.107-2.094c-0.005-1.17-1.002-2.111-2.102-2.111C72.964,7.887,71.951,8.828,71.959,9.998L71.959,9.998z
	 M75.575,27.44l0.037-13.351h-4.396l-0.004,2.481h1.365l-0.02,10.869H75.575L75.575,27.44z M70.579,14.457
	c-0.602-0.404-1.436-0.625-1.988-0.575c-1.482,0.146-2.219,1.011-2.974,2.015l-0.224-1.782H62.82L62.795,27.44h3.018l0.021-8.451
	c0.625-1.374,1.344-2.181,2.563-2.181c0.283,0,0.711,0.125,1.351,0.354L70.579,14.457L70.579,14.457z M49.501,20.671
	c-0.011,3.638,1.819,7.039,6.151,7.039c2.132,0,3.982-0.986,5.125-2.958l-2.498-1.683c-0.792,1.266-1.579,1.79-2.728,1.79
	c-2.035,0-2.884-2.182-2.878-4.055c0.02-1.927,0.817-4.118,2.928-4.118c1.062,0,1.886,0.5,2.638,1.682l2.313-1.611
	c-1.055-1.736-2.839-2.888-4.887-2.888C51.242,13.87,49.53,17.017,49.501,20.671L49.501,20.671z M35.06,24.164
	c1.624,2.464,3.99,3.596,6.65,3.596c3.962,0,6.841-2.281,6.043-6.422c-0.986-5.117-8.03-4.018-8.554-6.736
	c-0.294-1.524,0.547-2.777,2.55-2.777c1.478,0,2.447,0.732,3.375,1.877l2.28-1.586c-1.419-2.177-3.648-3.247-6.03-3.247
	c-3.451,0-6.169,2.248-5.438,6.037c0.951,4.937,7.987,3.971,8.567,6.981c0.356,1.852-1.241,2.914-2.952,2.914
	c-1.756,0-2.921-0.796-3.992-2.183L35.06,24.164z"/>
<path fill-rule="evenodd" clip-rule="evenodd" fill="#58595B" d="M178.376,20.55c0,0,1.853-5.378,2.475-7.268h0.088
	c0.922,2.623,2.445,7.243,2.445,7.243L178.376,20.55L178.376,20.55z M189.368,27.427c0,0-6.307-16.717-6.922-18.34h-2.974
	l-6.983,18.34h3.362l1.493-3.963h6.993l1.496,3.963H189.368L189.368,27.427z M167.487,21.047c-0.587-1.012-1.479-2.548-1.586-2.72
	l-5.757-9.246h-2.742l-0.029,18.345h3.247l0.028-10.672c-0.008-0.475-0.001-0.962-0.021-1.428c0.437,0.795,0.996,1.819,1.191,2.123
	c1.233,2.036,6.027,9.695,6.202,9.978h2.676l0.041-18.345h-3.246C167.489,16.134,167.487,19.339,167.487,21.047L167.487,21.047z
	 M144.427,12.158c4.346,0,6.645,1.84,6.639,6.478c-0.012,3.851-3.068,5.785-5.633,5.785h-2.294l0.031-12.263H144.427L144.427,12.158
	z M145.944,27.44c5.149,0,8.447-3.564,8.454-8.705c0.009-6.811-4.57-9.612-10.422-9.612h-4.075l-0.039,18.317H145.944z"/>
<path fill-rule="evenodd" clip-rule="evenodd" d="M189.368,33.811l-0.345,0.355c-0.286-0.277-0.566-0.415-0.84-0.415
	c-0.174,0-0.322,0.057-0.447,0.172c-0.124,0.112-0.186,0.248-0.186,0.401c0,0.136,0.052,0.264,0.153,0.385
	c0.101,0.126,0.316,0.271,0.643,0.44c0.397,0.204,0.668,0.404,0.812,0.596c0.14,0.193,0.21,0.411,0.21,0.652
	c0,0.343-0.12,0.631-0.36,0.87c-0.239,0.235-0.541,0.354-0.9,0.354c-0.24,0-0.47-0.052-0.689-0.155
	c-0.218-0.105-0.398-0.248-0.541-0.434l0.336-0.382c0.273,0.309,0.565,0.463,0.872,0.463c0.214,0,0.396-0.069,0.549-0.208
	c0.149-0.136,0.226-0.298,0.226-0.483c0-0.154-0.05-0.289-0.148-0.41c-0.102-0.117-0.326-0.265-0.676-0.441
	c-0.377-0.193-0.632-0.385-0.767-0.573c-0.136-0.188-0.204-0.401-0.204-0.644c0-0.314,0.108-0.576,0.324-0.784
	s0.49-0.313,0.82-0.313C188.593,33.256,188.979,33.44,189.368,33.811L189.368,33.811z M185.695,35.02
	c-0.072-0.285-0.177-0.513-0.313-0.685c-0.14-0.171-0.32-0.309-0.547-0.412c-0.227-0.104-0.464-0.156-0.712-0.156
	c-0.411,0-0.764,0.13-1.06,0.393c-0.217,0.191-0.379,0.479-0.489,0.86H185.695L185.695,35.02z M185.689,36.14l0.452,0.239
	c-0.148,0.288-0.32,0.521-0.515,0.7c-0.195,0.176-0.413,0.312-0.656,0.404c-0.244,0.092-0.519,0.138-0.825,0.138
	c-0.682,0-1.214-0.222-1.598-0.665c-0.384-0.444-0.575-0.946-0.575-1.504c0-0.528,0.163-0.997,0.487-1.409
	c0.412-0.523,0.965-0.787,1.655-0.787c0.712,0,1.281,0.27,1.706,0.806c0.302,0.38,0.456,0.853,0.462,1.421h-3.762
	c0.01,0.481,0.165,0.877,0.464,1.184c0.302,0.308,0.671,0.463,1.112,0.463c0.212,0,0.421-0.038,0.621-0.11
	c0.201-0.072,0.373-0.17,0.514-0.292S185.525,36.412,185.689,36.14L185.689,36.14z M180.528,33.358h0.533v4.161h-0.533V33.358
	L180.528,33.358z M180.793,31.65c0.121,0,0.226,0.044,0.312,0.131c0.085,0.086,0.129,0.191,0.129,0.313s-0.044,0.226-0.129,0.312
	c-0.086,0.087-0.19,0.13-0.312,0.13c-0.12,0-0.222-0.043-0.308-0.13c-0.087-0.086-0.13-0.19-0.13-0.312s0.043-0.227,0.13-0.313
	C180.572,31.694,180.673,31.65,180.793,31.65L180.793,31.65z M177.35,33.774c-0.304,0-0.585,0.072-0.845,0.22
	c-0.261,0.146-0.464,0.348-0.612,0.605c-0.147,0.259-0.222,0.539-0.222,0.842c0,0.456,0.152,0.831,0.458,1.131
	c0.307,0.298,0.702,0.446,1.189,0.446c0.491,0,0.888-0.148,1.187-0.443c0.3-0.296,0.449-0.686,0.449-1.167
	c0-0.313-0.069-0.593-0.207-0.838c-0.137-0.246-0.333-0.438-0.584-0.583C177.911,33.846,177.639,33.774,177.35,33.774L177.35,33.774
	z M178.93,33.358h0.533v3.312c0,0.585-0.051,1.01-0.152,1.281c-0.139,0.38-0.383,0.675-0.73,0.883
	c-0.347,0.206-0.762,0.307-1.249,0.307c-0.355,0-0.676-0.049-0.961-0.149c-0.282-0.103-0.514-0.238-0.693-0.41
	c-0.177-0.169-0.342-0.421-0.491-0.748h0.579c0.157,0.277,0.362,0.482,0.613,0.615c0.249,0.133,0.56,0.2,0.929,0.2
	c0.366,0,0.675-0.068,0.925-0.201c0.252-0.138,0.432-0.308,0.539-0.511c0.106-0.204,0.159-0.536,0.159-0.994v-0.214
	c-0.201,0.254-0.447,0.449-0.737,0.587c-0.29,0.137-0.6,0.204-0.927,0.204c-0.383,0-0.741-0.096-1.079-0.284
	c-0.337-0.189-0.597-0.445-0.78-0.765c-0.185-0.322-0.277-0.675-0.277-1.058c0-0.387,0.097-0.744,0.288-1.078
	c0.19-0.331,0.456-0.595,0.794-0.787c0.339-0.194,0.695-0.292,1.069-0.292c0.313,0,0.604,0.065,0.872,0.191
	c0.269,0.127,0.529,0.339,0.777,0.636V33.358L178.93,33.358z M172.173,33.781c-0.445,0-0.826,0.164-1.146,0.491
	s-0.479,0.725-0.479,1.19c0,0.299,0.073,0.578,0.218,0.838c0.146,0.259,0.344,0.459,0.592,0.6c0.247,0.141,0.52,0.213,0.816,0.213
	s0.568-0.072,0.816-0.213c0.247-0.141,0.445-0.341,0.593-0.6c0.144-0.26,0.218-0.539,0.218-0.838c0-0.466-0.161-0.863-0.482-1.19
	C172.998,33.945,172.617,33.781,172.173,33.781L172.173,33.781z M172.176,33.256c0.642,0,1.174,0.233,1.595,0.695
	c0.386,0.422,0.577,0.923,0.577,1.501c0,0.579-0.202,1.085-0.608,1.52c-0.405,0.433-0.928,0.649-1.563,0.649
	c-0.641,0-1.163-0.217-1.568-0.649c-0.406-0.435-0.609-0.94-0.609-1.52c0-0.575,0.192-1.075,0.576-1.496
	C170.996,33.489,171.53,33.256,172.176,33.256L172.176,33.256z M168.556,31.752h0.532v5.768h-0.532V31.752L168.556,31.752z
	 M165.473,33.781c-0.445,0-0.827,0.164-1.146,0.491c-0.32,0.327-0.48,0.725-0.48,1.19c0,0.299,0.074,0.578,0.219,0.838
	c0.147,0.259,0.345,0.459,0.593,0.6c0.246,0.141,0.52,0.213,0.815,0.213c0.297,0,0.569-0.072,0.817-0.213
	c0.247-0.141,0.444-0.341,0.59-0.6c0.146-0.26,0.219-0.539,0.219-0.838c0-0.466-0.16-0.863-0.481-1.19
	C166.297,33.945,165.917,33.781,165.473,33.781L165.473,33.781z M165.475,33.256c0.642,0,1.175,0.233,1.597,0.695
	c0.384,0.422,0.575,0.923,0.575,1.501c0,0.579-0.202,1.085-0.608,1.52c-0.404,0.433-0.927,0.649-1.563,0.649
	c-0.639,0-1.163-0.217-1.567-0.649c-0.406-0.435-0.609-0.94-0.609-1.52c0-0.575,0.192-1.075,0.577-1.496
	C164.296,33.489,164.831,33.256,165.475,33.256L165.475,33.256z M158.724,33.358h0.531v0.746c0.217-0.285,0.455-0.497,0.714-0.638
	c0.262-0.139,0.546-0.211,0.852-0.211c0.313,0,0.589,0.078,0.832,0.236c0.24,0.159,0.419,0.372,0.535,0.64
	c0.113,0.267,0.171,0.684,0.171,1.248v2.14h-0.532v-1.982c0-0.479-0.021-0.798-0.062-0.958c-0.064-0.274-0.186-0.481-0.361-0.622
	c-0.176-0.138-0.406-0.206-0.69-0.206c-0.325,0-0.615,0.106-0.871,0.32c-0.259,0.214-0.429,0.479-0.508,0.794
	c-0.051,0.206-0.079,0.583-0.079,1.131v1.523h-0.531V33.358L158.724,33.358z M153.945,31.752h0.533v2.357
	c0.217-0.284,0.457-0.498,0.717-0.64c0.261-0.142,0.543-0.214,0.848-0.214c0.312,0,0.589,0.078,0.831,0.236
	c0.24,0.159,0.42,0.372,0.535,0.637c0.114,0.268,0.171,0.684,0.171,1.251v2.14h-0.531v-1.982c0-0.479-0.02-0.798-0.058-0.958
	c-0.067-0.274-0.188-0.481-0.363-0.622c-0.176-0.138-0.406-0.206-0.69-0.206c-0.324,0-0.615,0.106-0.873,0.32
	c-0.257,0.214-0.428,0.479-0.509,0.794c-0.051,0.204-0.077,0.58-0.077,1.131v1.523h-0.533V31.752L153.945,31.752z M152.919,34.223
	l-0.426,0.265c-0.368-0.486-0.872-0.729-1.509-0.729c-0.51,0-0.933,0.164-1.27,0.488c-0.335,0.326-0.504,0.721-0.504,1.187
	c0,0.302,0.077,0.586,0.232,0.853c0.154,0.267,0.367,0.475,0.638,0.622c0.27,0.147,0.572,0.222,0.907,0.222
	c0.613,0,1.116-0.244,1.505-0.73l0.426,0.28c-0.2,0.3-0.469,0.529-0.804,0.696c-0.338,0.164-0.721,0.246-1.15,0.246
	c-0.66,0-1.208-0.208-1.644-0.625c-0.434-0.417-0.651-0.926-0.651-1.523c0-0.401,0.103-0.774,0.306-1.119
	c0.203-0.344,0.482-0.613,0.837-0.806c0.357-0.194,0.754-0.292,1.194-0.292c0.276,0,0.544,0.043,0.801,0.126
	c0.256,0.084,0.475,0.193,0.652,0.328C152.641,33.845,152.792,34.016,152.919,34.223L152.919,34.223z M147.3,35.02
	c-0.072-0.285-0.176-0.513-0.313-0.685c-0.139-0.171-0.32-0.309-0.546-0.412c-0.226-0.104-0.464-0.156-0.713-0.156
	c-0.411,0-0.763,0.13-1.059,0.393c-0.218,0.191-0.379,0.479-0.489,0.86H147.3L147.3,35.02z M147.295,36.14l0.452,0.239
	c-0.149,0.288-0.32,0.521-0.515,0.7c-0.193,0.176-0.413,0.312-0.656,0.404c-0.243,0.092-0.519,0.138-0.825,0.138
	c-0.682,0-1.213-0.222-1.597-0.665c-0.385-0.444-0.576-0.946-0.576-1.504c0-0.528,0.163-0.997,0.487-1.409
	c0.412-0.523,0.965-0.787,1.656-0.787c0.712,0,1.28,0.27,1.705,0.806c0.302,0.38,0.456,0.853,0.461,1.421h-3.762
	c0.011,0.481,0.166,0.877,0.466,1.184c0.3,0.308,0.671,0.463,1.11,0.463c0.214,0,0.422-0.038,0.623-0.11
	c0.2-0.072,0.371-0.17,0.514-0.292C146.979,36.604,147.132,36.412,147.295,36.14L147.295,36.14z M139.975,32.441v-0.548h3.079v0.548
	H141.8v5.078h-0.571v-5.078H139.975z"/>
<g>
	
		<radialGradient id="SVGID_1_" cx="3.0054" cy="12.1118" r="13.1891" gradientTransform="matrix(0.9455 -0.3256 0.3267 0.9488 -3.7933 1.5982)" gradientUnits="userSpaceOnUse">
		<stop  offset="0" style="stop-color:#C7C5C5"/>
		<stop  offset="1" style="stop-color:#545454"/>
		<a:midPointStop  offset="0" style="stop-color:#C7C5C5"/>
		<a:midPointStop  offset="0.5" style="stop-color:#C7C5C5"/>
		<a:midPointStop  offset="1" style="stop-color:#545454"/>
	</radialGradient>
	<path fill-rule="evenodd" clip-rule="evenodd" fill="url(#SVGID_1_)" d="M21.271,3.587c1.754,0.637,3.316,1.57,4.652,2.72
		c-4.923-2.674-12.298,1.029-11.383,8.205c0.085,3.428,2.717,6.515,3.927,9.677c0.296,0.752,0.461,1.473,0.505,2.164
		c0.026,0.552-0.032,1.09-0.172,1.615c-0.32-0.172-0.631-0.365-0.931-0.571c-0.766-0.527-1.474-1.153-2.126-1.815l-0.227-0.23
		l-0.515,0.506l0.228,0.23c0.685,0.695,1.426,1.352,2.231,1.905c0.354,0.242,0.722,0.469,1.104,0.667
		c-0.183,0.439-0.427,0.868-0.729,1.285c-0.245,0.339-0.505,0.639-0.78,0.899c-0.524-0.253-1.02-0.566-1.485-0.914
		c-0.746-0.559-1.427-1.212-2.053-1.898L13.3,27.792l-0.534,0.485l0.217,0.239c0.658,0.722,1.374,1.403,2.156,1.989
		c0.415,0.311,0.851,0.596,1.309,0.839c-0.067,0.048-0.134,0.093-0.204,0.136c-1.824,1.348-4.954,0.284-5.687-0.023l0.065,0.066
		C3.15,28.544-0.652,20.146,2.113,12.533C4.933,4.772,13.511,0.768,21.271,3.587L21.271,3.587z M29.028,10.019
		c-1.917-2.529-5.607-2.41-7.671-0.411c1.188,0.437,2.355,0.954,3.452,1.583c1.127,0.646,2.192,1.418,3.1,2.351l0.341,0.352
		l-0.783,0.763l-0.343-0.352c-0.835-0.859-1.822-1.569-2.859-2.163c-1.152-0.66-2.388-1.191-3.64-1.633
		c-0.517,0.818-0.809,1.829-0.753,3.003c0.014,0.225,0.042,0.452,0.082,0.684c0.447,0.213,0.888,0.442,1.317,0.688
		c1.127,0.646,2.192,1.417,3.101,2.35l0.342,0.352l-0.784,0.763l-0.342-0.352c-0.836-0.858-1.822-1.569-2.86-2.163
		c-0.122-0.069-0.244-0.138-0.369-0.206l0.02,0.048c1.21,3.162,3.843,6.248,3.928,9.677c0.033,1.713-0.502,3.341-1.625,4.885
		c-0.38,0.523-0.793,0.986-1.236,1.389c3.935-1.487,7.224-4.617,8.773-8.883C31.806,18.369,31.227,13.735,29.028,10.019z"/>
	<path fill-rule="evenodd" clip-rule="evenodd" fill="#FFFFFF" d="M22.751,25.27c0.158,0.058,0.335-0.025,0.393-0.184
		c0.059-0.161-0.024-0.337-0.184-0.394c-0.16-0.058-0.335,0.024-0.395,0.183C22.509,25.035,22.592,25.212,22.751,25.27L22.751,25.27
		z M18.464,23.712c-0.16-0.058-0.241-0.234-0.184-0.395c0.058-0.159,0.235-0.24,0.394-0.184c0.159,0.059,0.241,0.234,0.184,0.395
		C18.801,23.688,18.624,23.771,18.464,23.712L18.464,23.712z M18.998,24.335c0.233,0.084,0.491-0.035,0.575-0.269
		c0.085-0.234-0.036-0.491-0.268-0.575c-0.233-0.086-0.491,0.035-0.576,0.268C18.645,23.992,18.764,24.249,18.998,24.335
		L18.998,24.335z M19.847,24.962c0.292,0.104,0.615-0.046,0.72-0.336c0.106-0.292,0.428-0.442,0.719-0.337
		c0.254,0.094,0.402,0.35,0.365,0.605c0.004-0.021,0.011-0.044,0.019-0.067c0.084-0.231,0.343-0.353,0.576-0.268
		c0.232,0.084,0.353,0.342,0.269,0.575c-0.085,0.234-0.342,0.354-0.576,0.269c-0.203-0.073-0.32-0.277-0.292-0.482
		c-0.005,0.029-0.013,0.059-0.024,0.087c-0.106,0.292-0.428,0.442-0.719,0.337c-0.292-0.106-0.442-0.429-0.336-0.719
		c0.106-0.292-0.045-0.615-0.335-0.721c-0.292-0.104-0.614,0.045-0.72,0.336C19.406,24.533,19.556,24.855,19.847,24.962z"/>
	<path fill-rule="evenodd" clip-rule="evenodd" fill="#A6CE39" d="M10.558,31.457c0.733,0.308,3.863,1.371,5.687,0.023
		c0.069-0.043,0.137-0.088,0.204-0.136c-0.458-0.243-0.895-0.528-1.309-0.839c-0.782-0.586-1.498-1.268-2.156-1.989l-0.217-0.239
		l0.534-0.485l0.218,0.239c0.626,0.687,1.307,1.34,2.053,1.898c0.465,0.348,0.96,0.661,1.485,0.914
		c0.275-0.261,0.535-0.561,0.78-0.899c0.303-0.417,0.547-0.846,0.729-1.285c-0.382-0.198-0.75-0.425-1.104-0.667
		c-0.806-0.554-1.546-1.21-2.231-1.905l-0.228-0.23l0.515-0.506l0.227,0.23c0.652,0.662,1.36,1.288,2.126,1.815
		c0.3,0.206,0.61,0.399,0.931,0.571c0.14-0.525,0.198-1.063,0.172-1.615c-0.044-0.691-0.209-1.412-0.505-2.164
		c-1.21-3.162-3.842-6.249-3.927-9.677c-1.198-9.397,11.82-12.841,14.932-3.801c-1.732-3.229-5.878-3.269-8.114-1.103
		c1.188,0.437,2.355,0.954,3.452,1.583c1.127,0.646,2.192,1.418,3.1,2.351l0.341,0.352l-0.783,0.763l-0.343-0.352
		c-0.835-0.859-1.822-1.569-2.859-2.163c-1.152-0.66-2.388-1.191-3.64-1.633c-0.517,0.818-0.809,1.829-0.753,3.003
		c0.014,0.225,0.042,0.452,0.082,0.684c0.447,0.213,0.888,0.442,1.317,0.688c1.127,0.646,2.192,1.417,3.101,2.35l0.342,0.352
		l-0.784,0.763l-0.342-0.352c-0.836-0.858-1.822-1.569-2.86-2.163c-0.122-0.069-0.244-0.138-0.369-0.206l0.02,0.048
		c1.21,3.162,3.843,6.248,3.928,9.677c0.033,1.713-0.502,3.341-1.625,4.885c-1.353,1.864-3.108,2.94-5.244,3.372
		C15.211,34.06,12.664,33.567,10.558,31.457z"/>
	<path fill-rule="evenodd" clip-rule="evenodd" fill="#FFFFFF" d="M15.433,21.941c-0.529,0.271-1.031,0.582-1.485,0.939l-0.074,0.06
		l-0.078,0.052c-1.952,1.301-3.358,3.096-3.715,5.175c-0.146,0.845-0.104,1.676,0.107,2.435c0.365-2.129,1.056-3.152,2.754-4.568
		c0.486,0.632,1.015,1.235,1.596,1.78c0.623,0.584,1.316,1.106,2.079,1.499l0.287,0.147l0.33-0.643l-0.288-0.146
		c-0.703-0.361-1.341-0.845-1.916-1.384c-0.556-0.522-1.063-1.102-1.527-1.707c0.268-0.213,0.559-0.436,0.872-0.675
		c0.597-0.453,1.241-0.829,1.906-1.15C15.979,23.158,15.689,22.554,15.433,21.941L15.433,21.941z M24.934,21.168
		c0.529-0.304,1.032-0.645,1.485-1.031l0.074-0.063l0.079-0.057c1.951-1.422,3.357-3.303,3.714-5.404
		c0.146-0.854,0.104-1.683-0.107-2.428c-0.348,2.045-0.988,3.109-2.508,4.515c-0.656-0.775-1.408-1.469-2.208-2.091
		c-1.171-0.912-2.456-1.686-3.774-2.359l-0.438-0.224l-0.498,0.975l0.437,0.224c1.257,0.642,2.486,1.378,3.6,2.247
		c0.746,0.58,1.449,1.229,2.059,1.952c-0.264,0.225-0.549,0.462-0.857,0.715c-0.597,0.491-1.242,0.907-1.906,1.269
		C24.388,19.986,24.678,20.572,24.934,21.168z"/>
</g>
</svg>
